#!OML:ASF F:\VICON\USERDATA\INSTALL\Justin_Nancy\Justin_Nancy.ASF
:FULLY-SPECIFIED
:DEGREES
104
root -8.48117 15.9327 8.8442 -2.93284 -72.8261 16.2627
lowerback 15.2312 1.23103 4.01473
upperback 1.84807 2.3962 3.15497
thorax -6.54572 1.05149 0.594762
lowerneck -17.1925 -6.82624 -9.28284
upperneck 11.6832 -8.105 6.97451
head 7.05009 -3.72489 2.84074
rclavicle -3.33958e-014 -6.36111e-015
rhumerus -41.6336 16.724 -91.9463
rradius 112.736
rwrist -9.78011
rhand -17.257 32.5565
rfingers 7.12502
rthumb 8.98734 2.7679
lclavicle -3.33958e-014 -6.36111e-015
lhumerus -59.1434 -9.03385 90.1479
lradius 108.576
lwrist 25.5214
lhand -19.0341 3.59881
lfingers 7.12502
lthumb 7.27223 33.4538
rfemur -3.13213 5.41552 36.6629
rtibia 69.7508
rfoot 6.33429 4.89191
rtoes -3.01023
lfemur -43.9229 -1.16848 -5.06291
ltibia 50.7121
lfoot -12.3022 -6.42111
ltoes -25.9459
105
root -8.89586 15.9219 9.01121 -5.53833 -73.9471 19.4519
lowerback 14.1679 1.37955 3.11015
upperback 1.95495 2.36543 2.65876
thorax -5.85994 1.0715 0.606979
lowerneck -17.5232 -6.7235 -8.94594
upperneck 11.9125 -8.0529 7.1092
head 7.16809 -3.66508 2.82998
rclavicle -4.85035e-014 -3.02153e-014
rhumerus -42.6123 15.693 -92.5855
rradius 110.022
rwrist -9.17284
rhand -16.9192 32.5747
rfingers 7.12502
rthumb 9.31331 2.80042
lclavicle -4.85035e-014 -3.02153e-014
lhumerus -57.0654 -9.27129 90.2975
lradius 108.83
lwrist 26.0174
lhand -18.2122 4.99079
lfingers 7.12502
lthumb 8.06551 34.8169
rfemur -6.29449 4.06884 34.8231
rtibia 75.2923
rfoot 3.52537 0.786705
rtoes -0.250931
lfemur -41.9585 -0.696324 -5.89678
ltibia 50.6514
lfoot -15.8062 -5.63884
ltoes -30.7613
106
root -9.30744 15.9201 9.19238 -9.27522 -74.514 23.385
lowerback 13.7033 1.26316 2.4856
upperback 2.02711 2.07065 2.08642
thorax -5.52993 0.944925 0.419871
lowerneck -17.7825 -6.62589 -9.04651
upperneck 12.2776 -7.97077 7.55717
head 7.34918 -3.58398 2.99746
rclavicle 2.06736e-014 9.54166e-015
rhumerus -43.3947 14.0691 -93.1963
rradius 107.313
rwrist -8.16944
rhand -16.1319 32.5206
rfingers 7.12502
rthumb 10.0729 2.7817
lclavicle 2.06736e-014 9.54166e-015
lhumerus -54.9296 -9.57089 90.2801
lradius 108.655
lwrist 26.0261
lhand -17.0575 5.23178
lfingers 7.12502
lthumb 9.17984 35.012
rfemur -9.23271 1.8459 32.5601
rtibia 80.3646
rfoot 1.30594 -2.49277
rtoes -0.681271
lfemur -39.6606 -0.904436 -7.14182
ltibia 50.1315
lfoot -18.4789 -3.92941
ltoes -34.4815
107
root -9.70879 15.9232 9.36175 -14.1543 -75.0476 27.9418
lowerback 14.024 1.13382 1.65234
upperback 2.19252 1.7524 1.58111
thorax -5.54315 0.80193 0.410624
lowerneck -17.9545 -6.53805 -9.27046
upperneck 12.4234 -7.86244 7.97938
head 7.44523 -3.50106 3.18367
rclavicle -1.43125e-014 -1.59028e-015
rhumerus -44.2887 12.3836 -93.5836
rradius 104.879
rwrist -6.87642
rhand -15.739 32.6514
rfingers 7.12502
rthumb 10.4519 2.93124
lclavicle -1.43125e-014 -1.59028e-015
lhumerus -52.7048 -9.73115 90.0392
lradius 108.263
lwrist 25.4916
lhand -16.2689 4.71142
lfingers 7.12502
lthumb 9.94074 34.4567
rfemur -11.833 -0.42549 30.2027
rtibia 85.0824
rfoot -0.506377 -5.26529
rtoes -0.534006
lfemur -36.6255 -1.55411 -8.40383
ltibia 49.3776
lfoot -20.4416 -2.2588
ltoes -36.0796
108
root -10.0927 15.9101 9.49816 -20.0246 -75.7616 33.1953
lowerback 14.9435 1.18465 0.393928
upperback 2.34302 1.60492 1.12917
thorax -5.91132 0.746216 0.657872
lowerneck -18.2085 -6.49735 -9.38486
upperneck 12.632 -7.81992 8.26781
head 7.57082 -3.45349 3.29874
rclavicle -6.36111e-015 -1.90833e-014
rhumerus -46.0457 11.0989 -93.9044
rradius 103.345
rwrist -5.94169
rhand -16.352 32.4259
rfingers 7.12502
rthumb 9.86058 2.67684
lclavicle -6.36111e-015 -1.90833e-014
lhumerus -50.4586 -9.90008 89.6032
lradius 108.084
lwrist 25.7426
lhand -15.436 5.02332
lfingers 7.12502
lthumb 10.7443 34.7286
rfemur -14.444 -2.4541 27.9559
rtibia 89.5771
rfoot -2.0087 -7.16677
rtoes 1.76625
lfemur -33.2424 -1.79954 -9.73742
ltibia 48.6009
lfoot -22.0776 -1.40671
ltoes -34.9413
109
root -10.4692 15.8823 9.60316 -25.5142 -76.3576 38.6935
lowerback 15.3726 1.30097 -1.21092
upperback 2.23561 1.47886 0.787993
thorax -6.29191 0.717871 1.22232
lowerneck -18.1901 -6.42513 -9.53123
upperneck 12.4853 -7.76416 8.75529
head 7.54279 -3.39236 3.49287
rclavicle -8.74653e-015 1.43125e-014
rhumerus -47.9689 9.57989 -94.2076
rradius 102.462
rwrist -5.49591
rhand -17.1181 32.1098
rfingers 7.12502
rthumb 9.12136 2.32705
lclavicle -8.74653e-015 1.43125e-014
lhumerus -48.2153 -9.85493 89.2027
lradius 107.851
lwrist 26.1107
lhand -14.3726 5.72403
lfingers 7.12502
lthumb 11.7699 35.3733
rfemur -17.9898 -4.43659 26.1806
rtibia 93.7461
rfoot -3.18979 -8.61293
rtoes 6.1047
lfemur -30.6417 -0.984008 -11.0007
ltibia 47.7237
lfoot -23.4093 -1.77817
ltoes -31.9156
110
root -10.8211 15.8408 9.69786 -30.3633 -76.3871 43.9099
lowerback 15.631 1.29196 -2.98833
upperback 1.98647 1.15571 0.591921
thorax -6.72147 0.61048 2.0839
lowerneck -17.9597 -6.3932 -9.99595
upperneck 12.0644 -7.70877 9.40051
head 7.40881 -3.34069 3.79407
rclavicle 7.95139e-016 3.02153e-014
rhumerus -49.8784 7.94821 -94.1556
rradius 102.254
rwrist -5.97389
rhand -17.492 32.0652
rfingers 7.12502
rthumb 8.76061 2.26701
lclavicle 7.95139e-016 3.02153e-014
lhumerus -46.0004 -9.38377 89.0752
lradius 107.306
lwrist 25.093
lhand -13.8478 5.97331
lfingers 7.12502
lthumb 12.2759 35.593
rfemur -22.2637 -6.57829 24.6385
rtibia 97.5943
rfoot -4.63826 -9.77945
rtoes 12.8362
lfemur -28.7416 0.541973 -12.5179
ltibia 46.7161
lfoot -24.5624 -1.7328
ltoes -31.6682
111
root -11.1932 15.8249 9.80916 -36.1048 -76.0775 49.9257
lowerback 15.7353 1.25305 -4.65732
upperback 1.85062 0.793319 0.309199
thorax -6.92237 0.481398 2.80567
lowerneck -17.9326 -6.306 -10.3381
upperneck 11.9379 -7.52679 9.5781
head 7.36551 -3.25605 3.93318
rclavicle 3.18055e-014 1.74931e-014
rhumerus -52.2159 6.62287 -93.8011
rradius 102.853
rwrist -7.26247
rhand -17.6431 32.3795
rfingers 7.12502
rthumb 8.6148 2.57526
lclavicle 3.18055e-014 1.74931e-014
lhumerus -43.9813 -8.81577 89.0545
lradius 106.891
lwrist 23.724
lhand -14.854 5.93417
lfingers 7.12502
lthumb 11.3055 35.6095
rfemur -26.1078 -8.59818 22.7231
rtibia 100.592
rfoot -6.50774 -10.121
rtoes 18.3858
lfemur -26.4218 1.65678 -14.4879
ltibia 45.4302
lfoot -25.7351 -0.311995
ltoes -33.9182
112
root -11.5811 15.8329 9.93243 -39.4097 -76.1175 53.1853
lowerback 15.9115 1.04536 -5.22821
upperback 1.81321 0.39512 0.149467
thorax -7.02933 0.304029 3.04472
lowerneck -18.5469 -5.99964 -10.1995
upperneck 12.5503 -7.03175 9.05561
head 7.59066 -3.0402 3.79493
rclavicle -3.26007e-014 -1.43125e-014
rhumerus -54.4814 5.51934 -93.5344
rradius 103.76
rwrist -8.54828
rhand -17.7217 32.4026
rfingers 7.12502
rthumb 8.53891 2.5953
lclavicle -3.26007e-014 -1.43125e-014
lhumerus -42.396 -7.91211 88.959
lradius 107.132
lwrist 22.728
lhand -15.9777 6.24919
lfingers 7.12502
lthumb 10.2216 35.9808
rfemur -29.377 -10.3685 21.8938
rtibia 102.522
rfoot -7.95865 -9.50932
rtoes 18.3299
lfemur -23.66 1.46294 -15.4776
ltibia 43.9595
lfoot -26.3936 1.76423
ltoes -36.1008
113
root -11.9733 15.8391 10.0535 -42.108 -76.3794 55.7743
lowerback 16.0317 0.814751 -5.48176
upperback 1.79578 0.0282336 0.0452001
thorax -7.08098 0.132567 3.15731
lowerneck -19.5465 -5.62172 -9.91553
upperneck 13.6081 -6.43065 8.35575
head 8.01254 -2.77784 3.58658
rclavicle 4.05521e-014 -3.18055e-015
rhumerus -56.7496 5.02487 -93.2306
rradius 105.072
rwrist -10.3355
rhand -18.0522 32.2658
rfingers 7.12502
rthumb 8.21996 2.44573
lclavicle 4.05521e-014 -3.18055e-015
lhumerus -41.3541 -7.10922 89.0441
lradius 107.869
lwrist 20.732
lhand -18.1939 7.52755
lfingers 7.12502
lthumb 8.08319 37.353
rfemur -32.6018 -11.6024 21.8478
rtibia 103.659
rfoot -8.86485 -8.52872
rtoes 14.2231
lfemur -20.8177 1.0106 -15.9851
ltibia 42.4056
lfoot -26.7008 2.0703
ltoes -34.4245
114
root -12.3687 15.8405 10.1658 -45.003 -76.6804 58.5496
lowerback 16.0658 0.650102 -5.83228
upperback 1.84002 -0.256916 0.0189369
thorax -7.02369 -0.000227961 3.39057
lowerneck -20.4118 -5.30496 -9.86444
upperneck 14.434 -5.91396 8.04219
head 8.37393 -2.54145 3.53975
rclavicle -7.95139e-016 -1.43125e-014
rhumerus -59.1565 5.18879 -92.7795
rradius 106.716
rwrist -12.0241
rhand -18.0282 32.4436
rfingers 7.12502
rthumb 8.24308 2.62437
lclavicle -7.95139e-016 -1.43125e-014
lhumerus -40.6737 -7.05966 89.7077
lradius 108.628
lwrist 15.7804
lhand -24.0956 10.1706
lfingers 7.12502
lthumb 2.38503 40.1371
rfemur -35.7776 -12.42 22.1163
rtibia 104.112
rfoot -9.5737 -8.16929
rtoes 7.75265
lfemur -18.0633 0.796506 -16.4379
ltibia 40.9554
lfoot -26.8878 1.68165
ltoes -32.4063
